#tb 0: 1/90000
0,          0,          0,        0,    16384, 0x213f9ea8
0,      18000,      18000,        0,    16384, 0x8185fdb1
0,      36000,      36000,        0,    16384, 0xf03581d1
0,      54000,      54000,        0,    16384, 0x629cd573
0,      72000,      72000,        0,    16384, 0xfe7a5b63
0,      90000,      90000,        0,    16384, 0x4afc05b2
0,     108000,     108000,        0,    16384, 0x074b8515
0,     126000,     126000,        0,    16384, 0x17fde900
0,     144000,     144000,        0,    16384, 0x831bac76
0,     162000,     162000,        0,    16384, 0x2fb579f3
0,     180000,     180000,        0,    16384, 0x68762bed
